<svg width="24" height="24" viewBox="0 0 24 24" fill="none" xmlns="http://www.w3.org/2000/svg">
<path fill-rule="evenodd" clip-rule="evenodd" d="M21.6004 12C21.6004 17.3019 17.3023 21.6 12.0004 21.6C6.69846 21.6 2.40039 17.3019 2.40039 12C2.40039 6.69806 6.69846 2.39999 12.0004 2.39999C17.3023 2.39999 21.6004 6.69806 21.6004 12ZM13.2004 7.19999C13.2004 7.86274 12.6631 8.39999 12.0004 8.39999C11.3376 8.39999 10.8004 7.86274 10.8004 7.19999C10.8004 6.53725 11.3376 5.99999 12.0004 5.99999C12.6631 5.99999 13.2004 6.53725 13.2004 7.19999ZM10.8004 10.8C10.1376 10.8 9.60039 11.3373 9.60039 12C9.60039 12.6627 10.1376 13.2 10.8004 13.2V16.8C10.8004 17.4627 11.3376 18 12.0004 18H13.2004C13.8631 18 14.4004 17.4627 14.4004 16.8C14.4004 16.1373 13.8631 15.6 13.2004 15.6V12C13.2004 11.3373 12.6631 10.8 12.0004 10.8H10.8004Z" fill="#4945FF"/>
</svg>
